Format : MPEG-4
Format profile : Base Media
Codec ID : isom
File size : 1.13 GiB
Duration : 2h 15mn
Overall bit rate mode : Variable
Overall bit rate : 1 202 Kbps

Video
ID : 1
Format : AVC
Format/Info : Advanced Video Codec
Format profile : High 10@L4.1
Format settings, CABAC : Yes
Format settings, ReFrames : 4 frames
Codec ID : avc1
Codec ID/Info : Advanced Video Coding
Duration : 2h 15mn
Bit rate : 1 053 Kbps
Maximum bit rate : 9 590 Kbps
Width : 1 280 pixels
Height : 720 pixels
Display aspect ratio : 16:9
Frame rate mode : Constant
Frame rate : 23.976 fps
Color space : YUV
Chroma subsampling : 4:2:0
Bit depth : 10 bits
Scan type : Progressive
Bits/(Pixel*Frame) : 0.048
Stream size : 1 017 MiB (88%)

Audio
ID : 2
Format : AAC
Format/Info : Advanced Audio Codec
Format profile : LC
Codec ID : 40
Duration : 2h 15mn
Bit rate mode : Variable
Bit rate : 144 Kbps
Maximum bit rate : 225 Kbps
Channel(s) : 2 channels
Channel positions : Front: L R
Sampling rate : 48.0 KHz
Compression mode : Lossy
Stream size : 140 MiB (12%)
Language : Spanish